<svg xmlns="http://www.w3.org/2000/svg" width="520" height="118" viewBox="0 0 520 118" role="img" aria-labelledby="title desc">
  <title id="title">Tvorba webů Plzeň</title>
  <desc id="desc">Logo pro tvorbu webů, aplikací a IT servis</desc>
  <defs>
    <linearGradient id="g" x1="0" y1="0" x2="1" y2="1">
      <stop offset="0" stop-color="#0f766e"/>
      <stop offset="0.55" stop-color="#0891b2"/>
      <stop offset="1" stop-color="#2563eb"/>
    </linearGradient>
    <linearGradient id="screen" x1="0" y1="0" x2="1" y2="1">
      <stop offset="0" stop-color="#ecfeff"/>
      <stop offset="1" stop-color="#dbeafe"/>
    </linearGradient>
  </defs>
  <g transform="translate(8 12)">
    <rect x="0" y="0" width="96" height="72" rx="16" fill="url(#g)"/>
    <rect x="9" y="10" width="78" height="46" rx="8" fill="url(#screen)" opacity="0.96"/>
    <circle cx="18" cy="19" r="3.5" fill="#0f766e"/>
    <circle cx="30" cy="19" r="3.5" fill="#0891b2"/>
    <circle cx="42" cy="19" r="3.5" fill="#facc15"/>
    <path d="M25 38l12-10v8l-6 4 6 4v8L25 42zM58 28l12 10-12 10v-8l6-4-6-4z" fill="#0f766e"/>
    <path d="M50 28l-8 22" stroke="#2563eb" stroke-width="5" stroke-linecap="round"/>
    <path d="M66 53l17 15-8 2 5 12-7 3-5-12-6 6z" fill="#061425"/>
    <rect x="35" y="72" width="26" height="10" rx="4" fill="#0f766e"/>
    <rect x="23" y="82" width="50" height="8" rx="4" fill="#0f766e" opacity="0.75"/>
  </g>
  <g transform="translate(126 25)">
    <text x="0" y="35" font-family="Inter, Arial, sans-serif" font-size="40" font-weight="900" letter-spacing="-1.7" fill="#061425">Tvorba webů</text>
    <text x="0" y="72" font-family="Inter, Arial, sans-serif" font-size="32" font-weight="800" letter-spacing="-1" fill="#0f766e">Plzeň</text>
    <rect x="104" y="58" width="8" height="8" rx="2" fill="#facc15"/>
    <text x="126" y="72" font-family="Inter, Arial, sans-serif" font-size="16" font-weight="800" letter-spacing=".4" fill="#64748b">weby • aplikace • IT servis</text>
  </g>
</svg>
