<svg xmlns="http://www.w3.org/2000/svg" viewBox="0 0 900 620" width="900" height="620">
  <defs>
    <linearGradient id="g" x1="0" x2="1" y1="0" y2="1">
      <stop offset="0" stop-color="#eef2ff"/>
      <stop offset="1" stop-color="#f8fafc"/>
    </linearGradient>
    <filter id="shadow" x="-20%" y="-20%" width="140%" height="140%"><feDropShadow dx="0" dy="18" stdDeviation="22" flood-color="#0f172a" flood-opacity=".18"/></filter>
  </defs>
  <rect width="900" height="620" rx="34" fill="#e7ddcf"/>
  <rect x="38" y="44" width="824" height="532" rx="24" fill="#fffaf2" filter="url(#shadow)"/>
  <rect x="38" y="44" width="824" height="58" rx="24" fill="#f8fafc"/>
  <circle cx="76" cy="74" r="9" fill="#ef4444"/><circle cx="104" cy="74" r="9" fill="#f59e0b"/><circle cx="132" cy="74" r="9" fill="#22c55e"/>
  <rect x="174" y="60" width="430" height="28" rx="14" fill="#e2e8f0"/>
  <text x="196" y="80" font-family="Arial, sans-serif" font-size="15" fill="#475569">www.kamery-plzen.cz</text>
  <rect x="38" y="102" width="824" height="474" rx="0" fill="url(#g)"/>
  <rect x="66" y="130" width="768" height="70" rx="18" fill="#ffffff" opacity=".86"/>
  <text x="88" y="174" font-family="Arial, sans-serif" font-weight="800" font-size="34" fill="#172033">Kamery Plzeň</text>
  <rect x="690" y="150" width="112" height="25" rx="12" fill="#4f46e5" opacity=".95"/>
  <rect x="66" y="226" width="440" height="188" rx="22" fill="#ffffff" opacity=".92"/>
  <g><circle cx="84" cy="233" r="5" fill="#4f46e5"/><text x="102" y="238" font-family="Arial, sans-serif" font-size="21" fill="#334155">domácnosti a firmy</text></g>
<g><circle cx="84" cy="271" r="5" fill="#4f46e5"/><text x="102" y="276" font-family="Arial, sans-serif" font-size="21" fill="#334155">online dohled v mobilu</text></g>
<g><circle cx="84" cy="309" r="5" fill="#4f46e5"/><text x="102" y="314" font-family="Arial, sans-serif" font-size="21" fill="#334155">záznam a upozornění</text></g>
<g><circle cx="84" cy="347" r="5" fill="#4f46e5"/><text x="102" y="352" font-family="Arial, sans-serif" font-size="21" fill="#334155">LTE/Wi‑Fi řešení</text></g>

  <rect x="542" y="226" width="292" height="188" rx="22" fill="#ffffff" opacity=".88"/>
  <text x="570" y="275" font-family="Arial, sans-serif" font-weight="800" font-size="28" fill="#172033">Web / projekt</text>
  <text x="570" y="315" font-family="Arial, sans-serif" font-size="22" fill="#475569">kamerové systémy</text>
  <rect x="570" y="350" width="178" height="36" rx="18" fill="#4f46e5"/>
  <text x="595" y="374" font-family="Arial, sans-serif" font-weight="800" font-size="18" fill="#ffffff">Otevřít web</text>
  <rect x="66" y="446" width="768" height="70" rx="18" fill="#ffffff" opacity=".82"/>
  <rect x="92" y="472" width="185" height="18" rx="9" fill="#cbd5e1"/><rect x="302" y="472" width="130" height="18" rx="9" fill="#cbd5e1"/><rect x="458" y="472" width="210" height="18" rx="9" fill="#cbd5e1"/>
</svg>